<svg width="40" height="42" viewBox="0 0 40 42" fill="none" xmlns="http://www.w3.org/2000/svg">
<path d="M19.1994 7.875C12.188 7.875 6.50919 13.897 6.50919 21.332C6.50919 27.2867 10.1418 32.3162 15.1861 34.0993C15.8206 34.217 16.0585 33.8133 16.0585 33.4601C16.0585 33.1405 16.0427 32.0807 16.0427 30.9537C12.8543 31.5761 12.0294 30.1295 11.7756 29.3725C11.6328 28.9856 11.0142 27.7913 10.4749 27.4717C10.0307 27.2194 9.3962 26.597 10.459 26.5802C11.4584 26.5634 12.1722 27.5558 12.4101 27.9595C13.5522 29.9949 15.3765 29.423 16.1061 29.0697C16.2172 28.195 16.5503 27.6063 16.9151 27.2699C14.0916 26.9335 11.1411 25.7728 11.1411 20.6255C11.1411 19.162 11.6328 17.9509 12.4418 17.0089C12.3149 16.6725 11.8708 15.2932 12.5687 13.4428C12.5687 13.4428 13.6316 13.0896 16.0585 14.8222C17.0738 14.5194 18.1524 14.368 19.2311 14.368C20.3098 14.368 21.3884 14.5194 22.4036 14.8222C24.8306 13.0728 25.8934 13.4428 25.8934 13.4428C26.5914 15.2932 26.1472 16.6725 26.0203 17.0089C26.8293 17.9509 27.3211 19.1452 27.3211 20.6255C27.3211 25.7896 24.3548 26.9335 21.5312 27.2699C21.9912 27.6904 22.3878 28.4978 22.3878 29.7594C22.3878 31.5593 22.3719 33.0059 22.3719 33.4601C22.3719 33.8133 22.6099 34.2339 23.2444 34.0993C25.7637 33.1977 27.953 31.4808 29.5038 29.1905C31.0547 26.9001 31.8891 24.1516 31.8896 21.332C31.8896 13.897 26.2107 7.875 19.1994 7.875Z" fill="#ABB2BF"/>
</svg>
