<svg width="30" height="32" viewBox="0 0 30 32" fill="none" xmlns="http://www.w3.org/2000/svg">
<path d="M25.9874 14.8188H14.9047V18.4019H22.7726C22.3738 23.4025 18.5425 25.5419 14.9168 25.5419C10.2879 25.5419 6.22702 21.5781 6.22702 16C6.22702 10.6188 10.0945 6.45813 14.9289 6.45813C18.6634 6.45813 20.8509 9.04375 20.8509 9.04375L23.1473 6.445C23.1473 6.445 20.1983 2.875 14.808 2.875C7.94322 2.875 2.63751 9.175 2.63751 16C2.63751 22.6281 7.62898 29.125 14.9893 29.125C21.4552 29.125 26.1687 24.3081 26.1687 17.1944C26.1687 15.685 25.9874 14.8188 25.9874 14.8188Z" fill="#ABB2BF"/>
</svg>
