<svg width="30" height="32" viewBox="0 0 30 32" fill="none" xmlns="http://www.w3.org/2000/svg">
<path d="M10.4208 2.875H20.573C24.4405 2.875 27.5828 6.2875 27.5828 10.4875V21.5125C27.5828 23.5315 26.8443 25.4677 25.5297 26.8954C24.2151 28.323 22.4321 29.125 20.573 29.125H10.4208C6.55334 29.125 3.41101 25.7125 3.41101 21.5125V10.4875C3.41101 8.46854 4.14954 6.53227 5.46414 5.10465C6.77873 3.67703 8.56171 2.875 10.4208 2.875ZM10.1791 5.5C9.02517 5.5 7.9185 5.99781 7.10254 6.88392C6.28659 7.77003 5.82819 8.97185 5.82819 10.225V21.775C5.82819 24.3869 7.77402 26.5 10.1791 26.5H20.8147C21.9686 26.5 23.0753 26.0022 23.8913 25.1161C24.7072 24.23 25.1656 23.0281 25.1656 21.775V10.225C25.1656 7.61312 23.2198 5.5 20.8147 5.5H10.1791ZM21.842 7.46875C22.2427 7.46875 22.6269 7.6416 22.9102 7.94928C23.1936 8.25695 23.3527 8.67425 23.3527 9.10938C23.3527 9.5445 23.1936 9.9618 22.9102 10.2695C22.6269 10.5771 22.2427 10.75 21.842 10.75C21.4413 10.75 21.0571 10.5771 20.7737 10.2695C20.4904 9.9618 20.3313 9.5445 20.3313 9.10938C20.3313 8.67425 20.4904 8.25695 20.7737 7.94928C21.0571 7.6416 21.4413 7.46875 21.842 7.46875ZM15.4969 9.4375C17.0996 9.4375 18.6366 10.1289 19.7699 11.3596C20.9032 12.5903 21.5398 14.2595 21.5398 16C21.5398 17.7405 20.9032 19.4097 19.7699 20.6404C18.6366 21.8711 17.0996 22.5625 15.4969 22.5625C13.8942 22.5625 12.3572 21.8711 11.2239 20.6404C10.0906 19.4097 9.45396 17.7405 9.45396 16C9.45396 14.2595 10.0906 12.5903 11.2239 11.3596C12.3572 10.1289 13.8942 9.4375 15.4969 9.4375ZM15.4969 12.0625C14.5353 12.0625 13.6131 12.4773 12.9331 13.2158C12.2531 13.9542 11.8711 14.9557 11.8711 16C11.8711 17.0443 12.2531 18.0458 12.9331 18.7842C13.6131 19.5227 14.5353 19.9375 15.4969 19.9375C16.4585 19.9375 17.3807 19.5227 18.0607 18.7842C18.7407 18.0458 19.1227 17.0443 19.1227 16C19.1227 14.9557 18.7407 13.9542 18.0607 13.2158C17.3807 12.4773 16.4585 12.0625 15.4969 12.0625Z" fill="#ABB2BF"/>
</svg>
