<svg width="30" height="32" viewBox="0 0 30 32" fill="none" xmlns="http://www.w3.org/2000/svg">
<path d="M22.9632 4.1875C23.6043 4.1875 24.2191 4.46406 24.6724 4.95634C25.1257 5.44863 25.3804 6.11631 25.3804 6.8125V25.1875C25.3804 25.8837 25.1257 26.5514 24.6724 27.0437C24.2191 27.5359 23.6043 27.8125 22.9632 27.8125H6.04294C5.40187 27.8125 4.78705 27.5359 4.33374 27.0437C3.88043 26.5514 3.62576 25.8837 3.62576 25.1875V6.8125C3.62576 6.11631 3.88043 5.44863 4.33374 4.95634C4.78705 4.46406 5.40187 4.1875 6.04294 4.1875H22.9632ZM22.3589 24.5312V17.575C22.3589 16.4402 21.9438 15.3519 21.2049 14.5495C20.466 13.747 19.4638 13.2962 18.4189 13.2962C17.3916 13.2962 16.1951 13.9787 15.615 15.0025V13.5456H12.243V24.5312H15.615V18.0606C15.615 17.05 16.3643 16.2231 17.2949 16.2231C17.7437 16.2231 18.174 16.4167 18.4913 16.7613C18.8087 17.1059 18.9869 17.5733 18.9869 18.0606V24.5312H22.3589ZM8.31509 11.485C8.85359 11.485 9.37004 11.2527 9.75082 10.8392C10.1316 10.4257 10.3455 9.8648 10.3455 9.28C10.3455 8.05938 9.43908 7.06188 8.31509 7.06188C7.77338 7.06188 7.25386 7.29557 6.87081 7.71155C6.48777 8.12753 6.27257 8.69172 6.27257 9.28C6.27257 10.5006 7.1911 11.485 8.31509 11.485ZM9.99503 24.5312V13.5456H6.64724V24.5312H9.99503Z" fill="#ABB2BF"/>
</svg>
