<svg width="30" height="34" viewBox="0 0 30 34" fill="none" xmlns="http://www.w3.org/2000/svg">
<path d="M15.2446 2.98438C8.64575 2.98438 3.26752 9.06836 3.26752 16.5332C3.26752 18.9258 3.82348 21.25 4.86286 23.3008L3.17084 30.3281L9.51593 28.4414C11.2684 29.5215 13.2384 30.0957 15.2446 30.0957C21.8435 30.0957 27.2218 24.0117 27.2218 16.5469C27.2218 12.9238 25.9769 9.51953 23.7169 6.96289C21.4568 4.39258 18.4474 2.98438 15.2446 2.98438ZM15.2567 5.26758C17.9156 5.26758 20.4053 6.44336 22.2907 8.57617C24.164 10.709 25.2034 13.5391 25.2034 16.5469C25.2034 22.7539 20.7316 27.7988 15.2446 27.7988C13.4559 27.7988 11.7035 27.2656 10.1807 26.2266L9.81808 25.9941L6.04728 27.1152L7.05041 22.959L6.80869 22.5215C5.81765 20.7578 5.28587 18.666 5.28587 16.5332C5.29795 10.3262 9.75765 5.26758 15.2567 5.26758ZM11.0025 10.2715C10.8091 10.2715 10.4828 10.3535 10.2048 10.6953C9.93894 11.0371 9.15335 11.8711 9.15335 13.5254C9.15335 15.1934 10.229 16.793 10.3619 17.0254C10.5311 17.2578 12.4891 20.6758 15.4984 22.125C16.2115 22.4941 16.7675 22.6992 17.2026 22.8496C17.9156 23.1094 18.5683 23.0684 19.088 22.9863C19.6681 22.8906 20.8525 22.166 21.1063 21.373C21.3601 20.5801 21.3601 19.9102 21.2876 19.7598C21.203 19.623 21.0096 19.541 20.7075 19.3906C20.4053 19.1992 18.9308 18.3789 18.6649 18.2695C18.387 18.1602 18.2178 18.1055 17.9881 18.4336C17.7948 18.7754 17.2146 19.541 17.0454 19.7598C16.8642 19.9922 16.6949 20.0195 16.4049 19.8555C16.0907 19.6777 15.1238 19.3223 13.9877 18.1738C13.0934 17.2715 12.5011 16.1641 12.3199 15.8223C12.1748 15.4941 12.3078 15.2891 12.4528 15.1387C12.5857 14.9883 12.7791 14.7422 12.9 14.5371C13.0571 14.3457 13.1054 14.1953 13.2021 13.9766C13.2988 13.7441 13.2505 13.5527 13.178 13.3887C13.1054 13.2383 12.5011 11.543 12.2473 10.873C12.0056 10.2168 11.7639 10.2988 11.5705 10.2852C11.4013 10.2852 11.208 10.2715 11.0025 10.2715Z" fill="#ABB2BF"/>
</svg>
