<svg width="37" height="37" viewBox="0 0 37 37" fill="none" xmlns="http://www.w3.org/2000/svg">
<path d="M18.5 23.8752C19.9512 23.8752 21.1875 23.3377 22.2804 22.2806C23.3375 21.1877 23.875 19.9514 23.875 18.5002C23.875 17.0489 23.3375 15.8127 22.2804 14.7197C21.1875 13.6627 19.9512 13.1252 18.5 13.1252C17.0487 13.1252 15.8125 13.6627 14.7196 14.7197C13.6625 15.8127 13.125 17.0489 13.125 18.5002C13.125 19.9514 13.6625 21.1877 14.7196 22.2806C15.8125 23.3377 17.0487 23.8752 18.5 23.8752ZM18.5 0.583496C23.4271 0.583496 27.6375 2.37516 31.1312 5.86891C34.625 9.36266 36.4166 13.5731 36.4166 18.5002V21.0981C36.4166 22.8897 35.7896 24.4127 34.625 25.6668C33.3708 26.8672 31.9375 27.4585 30.1458 27.4585C27.9958 27.4585 26.2221 26.5627 24.8783 24.771C23.0866 26.5627 20.9725 27.4585 18.5 27.4585C16.0454 27.4585 13.9312 26.5627 12.1575 24.8427C10.4375 23.0689 9.54165 20.9727 9.54165 18.5002C9.54165 16.0456 10.4375 13.9314 12.1575 12.1577C13.9312 10.4377 16.0454 9.54183 18.5 9.54183C20.9725 9.54183 23.0687 10.4377 24.8425 12.1577C26.5625 13.9314 27.4583 16.0456 27.4583 18.5002V21.0981C27.4583 21.8327 27.745 22.4777 28.2825 23.0331C28.82 23.5885 29.4471 23.8752 30.1458 23.8752C30.8983 23.8752 31.5254 23.5885 32.0629 23.0331C32.6004 22.4777 32.8333 21.8327 32.8333 21.0981V18.5002C32.8333 14.5764 31.4537 11.2081 28.6229 8.37725C25.7921 5.54641 22.4237 4.16683 18.5 4.16683C14.5762 4.16683 11.2079 5.54641 8.37706 8.37725C5.54623 11.2081 4.16665 14.5764 4.16665 18.5002C4.16665 22.4239 5.54623 25.7922 8.37706 28.6231C11.2079 31.4539 14.5762 32.8335 18.5 32.8335H27.4583V36.4168H18.5C13.5729 36.4168 9.36248 34.6252 5.86873 31.1314C2.37498 27.6377 0.583313 23.4272 0.583313 18.5002C0.583313 13.5731 2.37498 9.36266 5.86873 5.86891C9.36248 2.37516 13.5729 0.583496 18.5 0.583496Z" fill="white"/>
</svg>
