<svg width="23" height="33" viewBox="0 0 23 33" fill="none" xmlns="http://www.w3.org/2000/svg">
<path d="M11.5 15.6875C10.4226 15.6875 9.38925 15.2595 8.62738 14.4976C7.86551 13.7358 7.4375 12.7024 7.4375 11.625C7.4375 10.5476 7.86551 9.51425 8.62738 8.75238C9.38925 7.99051 10.4226 7.5625 11.5 7.5625C12.5774 7.5625 13.6108 7.99051 14.3726 8.75238C15.1345 9.51425 15.5625 10.5476 15.5625 11.625C15.5625 12.1585 15.4574 12.6868 15.2533 13.1797C15.0491 13.6725 14.7499 14.1204 14.3726 14.4976C13.9954 14.8749 13.5475 15.1741 13.0547 15.3783C12.5618 15.5824 12.0335 15.6875 11.5 15.6875ZM11.5 0.25C8.48316 0.25 5.58989 1.44843 3.45666 3.58166C1.32343 5.71489 0.125 8.60816 0.125 11.625C0.125 20.1562 11.5 32.75 11.5 32.75C11.5 32.75 22.875 20.1562 22.875 11.625C22.875 8.60816 21.6766 5.71489 19.5433 3.58166C17.4101 1.44843 14.5168 0.25 11.5 0.25Z" fill="white"/>
</svg>
