<svg width="31" height="29" viewBox="0 0 31 29" fill="none" xmlns="http://www.w3.org/2000/svg">
<path d="M6.7575 12.6346C9.0975 16.9975 12.8675 20.5742 17.4662 22.7942L21.0413 19.4025C21.4963 18.9708 22.13 18.8475 22.6987 19.0171C24.5188 19.5875 26.4688 19.8958 28.5 19.8958C28.931 19.8958 29.3443 20.0583 29.649 20.3474C29.9538 20.6365 30.125 21.0286 30.125 21.4375V26.8333C30.125 27.2422 29.9538 27.6343 29.649 27.9235C29.3443 28.2126 28.931 28.375 28.5 28.375C21.1734 28.375 14.1469 25.6138 8.96618 20.6988C3.78548 15.7837 0.875 9.11755 0.875 2.16667C0.875 1.75779 1.0462 1.36566 1.35095 1.07654C1.6557 0.787425 2.06902 0.625 2.5 0.625H8.1875C8.61848 0.625 9.0318 0.787425 9.33655 1.07654C9.64129 1.36566 9.8125 1.75779 9.8125 2.16667C9.8125 4.09375 10.1375 5.94375 10.7387 7.67042C10.9175 8.21 10.7875 8.81125 10.3325 9.24292L6.7575 12.6346Z" fill="white"/>
</svg>
