<svg width="353" height="308" viewBox="0 0 353 308" fill="none" xmlns="http://www.w3.org/2000/svg">
<g filter="url(#filter0_i_521_3963)">
<path fill-rule="evenodd" clip-rule="evenodd" d="M332.779 125.536C318.049 141.67 304.101 161.111 300.326 182.629C289.218 245.942 238.115 297.446 171.005 306.074C88.4094 316.692 12.8445 258.343 2.22615 175.747C-8.39216 93.1512 49.9571 17.5863 132.553 6.96794C151.915 4.47874 170.892 5.77967 188.735 10.2946C209.905 15.6512 233.311 10.8389 254.052 4.00692C258.511 2.53807 263.173 1.4697 268.003 0.848814C308.989 -4.42026 346.486 24.5341 351.755 65.5203C354.674 88.2245 347.091 109.858 332.779 125.536Z" fill="url(#paint0_radial_521_3963)"/>
</g>
<defs>
<filter id="filter0_i_521_3963" x="-29.0212" y="0.229858" width="381.396" height="307.091" filterUnits="userSpaceOnUse" color-interpolation-filters="sRGB">
<feFlood flood-opacity="0" result="BackgroundImageFix"/>
<feBlend mode="normal" in="SourceGraphic" in2="BackgroundImageFix" result="shape"/>
<feColorMatrix in="SourceAlpha" type="matrix" values="0 0 0 0 0 0 0 0 0 0 0 0 0 0 0 0 0 0 127 0" result="hardAlpha"/>
<feOffset dx="-30"/>
<feGaussianBlur stdDeviation="17.5"/>
<feComposite in2="hardAlpha" operator="arithmetic" k2="-1" k3="1"/>
<feColorMatrix type="matrix" values="0 0 0 0 0.537255 0 0 0 0 0.85098 0 0 0 0 0.94902 0 0 0 1 0"/>
<feBlend mode="normal" in2="shape" result="effect1_innerShadow_521_3963"/>
</filter>
<radialGradient id="paint0_radial_521_3963" cx="0" cy="0" r="1" gradientUnits="userSpaceOnUse" gradientTransform="translate(138.248 83.42) rotate(9.37276) scale(146.438 133.784)">
<stop stop-color="#C94CFA"/>
<stop offset="1" stop-color="#3A3EF6"/>
</radialGradient>
</defs>
</svg>
