<svg width="609" height="690" viewBox="0 0 609 690" fill="none" xmlns="http://www.w3.org/2000/svg">
<g filter="url(#filter0_i_521_3969)">
<path fill-rule="evenodd" clip-rule="evenodd" d="M278.532 120.667C268.845 45.3145 199.046 -7.80759 122.631 2.01611C46.2162 11.8398 -7.87726 80.8892 1.80994 156.242C5.22975 182.844 16.141 206.674 32.1902 225.943C55.5573 253.998 70.2829 295.136 59.2405 329.88C47.4935 366.84 43.4327 406.803 48.6886 447.686C68.2103 599.539 208.871 706.591 362.863 686.794C516.855 666.997 625.865 527.848 606.343 375.996C586.821 224.143 446.161 117.091 292.169 136.888V136.888C285.62 137.73 279.704 132.793 279.14 126.307C278.977 124.431 278.775 122.551 278.532 120.667Z" fill="url(#paint0_radial_521_3969)"/>
</g>
<defs>
<filter id="filter0_i_521_3969" x="-29.3124" y="0.846191" width="637.917" height="688.306" filterUnits="userSpaceOnUse" color-interpolation-filters="sRGB">
<feFlood flood-opacity="0" result="BackgroundImageFix"/>
<feBlend mode="normal" in="SourceGraphic" in2="BackgroundImageFix" result="shape"/>
<feColorMatrix in="SourceAlpha" type="matrix" values="0 0 0 0 0 0 0 0 0 0 0 0 0 0 0 0 0 0 127 0" result="hardAlpha"/>
<feOffset dx="-30"/>
<feGaussianBlur stdDeviation="17.5"/>
<feComposite in2="hardAlpha" operator="arithmetic" k2="-1" k3="1"/>
<feColorMatrix type="matrix" values="0 0 0 0 0.537255 0 0 0 0 0.85098 0 0 0 0 0.94902 0 0 0 1 0"/>
<feBlend mode="normal" in2="shape" result="effect1_innerShadow_521_3969"/>
</filter>
<radialGradient id="paint0_radial_521_3969" cx="0" cy="0" r="1" gradientUnits="userSpaceOnUse" gradientTransform="translate(191.213 436.963) rotate(-80.4053) scale(269.541 249.137)">
<stop stop-color="#C94CFA"/>
<stop offset="1" stop-color="#3A3EF6"/>
</radialGradient>
</defs>
</svg>
