<svg width="43" height="27" viewBox="0 0 43 27" fill="none" xmlns="http://www.w3.org/2000/svg">
<path d="M21.5 0.854004C23.1631 0.854004 24.7581 1.51468 25.9341 2.69069C27.1102 3.8667 27.7708 5.46171 27.7708 7.12484C27.7708 8.78797 27.1102 10.383 25.9341 11.559C24.7581 12.735 23.1631 13.3957 21.5 13.3957C19.8369 13.3957 18.2419 12.735 17.0659 11.559C15.8898 10.383 15.2292 8.78797 15.2292 7.12484C15.2292 5.46171 15.8898 3.8667 17.0659 2.69069C18.2419 1.51468 19.8369 0.854004 21.5 0.854004ZM8.95833 5.33317C9.96167 5.33317 10.8933 5.60192 11.6996 6.08567C11.4308 8.64775 12.1833 11.1919 13.7242 13.1807C12.8283 14.9007 11.0367 16.0832 8.95833 16.0832C7.53279 16.0832 6.16564 15.5169 5.15763 14.5089C4.14963 13.5009 3.58333 12.1337 3.58333 10.7082C3.58333 9.28263 4.14963 7.91548 5.15763 6.90747C6.16564 5.89946 7.53279 5.33317 8.95833 5.33317ZM34.0417 5.33317C35.4672 5.33317 36.8344 5.89946 37.8424 6.90747C38.8504 7.91548 39.4167 9.28263 39.4167 10.7082C39.4167 12.1337 38.8504 13.5009 37.8424 14.5089C36.8344 15.5169 35.4672 16.0832 34.0417 16.0832C31.9633 16.0832 30.1717 14.9007 29.2758 13.1807C30.8167 11.1919 31.5692 8.64775 31.3004 6.08567C32.1067 5.60192 33.0383 5.33317 34.0417 5.33317ZM9.85417 23.6978C9.85417 19.989 15.0679 16.979 21.5 16.979C27.9321 16.979 33.1458 19.989 33.1458 23.6978V26.8332H9.85417V23.6978ZM0 26.8332V24.1457C0 21.6553 3.38625 19.559 7.97292 18.9498C6.91583 20.1682 6.27083 21.8523 6.27083 23.6978V26.8332H0ZM43 26.8332H36.7292V23.6978C36.7292 21.8523 36.0842 20.1682 35.0271 18.9498C39.6137 19.559 43 21.6553 43 24.1457V26.8332Z" fill="white"/>
</svg>
